<mxfile host="65bd71144e" pages="3">
    <diagram name="AskACat / Singleton" id="NrxR8G-YMzDSj0ekj28T">
        <mxGraphModel dx="804" dy="354" grid="1" gridSize="10" guides="1" tooltips="1" connect="1" arrows="1" fold="1" page="1" pageScale="1" pageWidth="827" pageHeight="1169" math="0" shadow="0">
            <root>
                <mxCell id="Kvf_sfXKE-Xyv2ca15X2-0"/>
                <mxCell id="Kvf_sfXKE-Xyv2ca15X2-1" parent="Kvf_sfXKE-Xyv2ca15X2-0"/>
                <mxCell id="Kvf_sfXKE-Xyv2ca15X2-2" value="&lt;p style=&quot;margin: 0px ; margin-top: 4px ; text-align: center&quot;&gt;&lt;b&gt;Cat&lt;/b&gt;&lt;/p&gt;&lt;hr size=&quot;1&quot;&gt;&lt;p style=&quot;margin: 0px ; margin-left: 4px&quot;&gt;- name: String&lt;/p&gt;&lt;hr size=&quot;1&quot;&gt;&lt;p style=&quot;margin: 0px ; margin-left: 4px&quot;&gt;&lt;span&gt;+ getName(Pet,String): String&lt;/span&gt;&lt;br&gt;&lt;/p&gt;&lt;p style=&quot;margin: 0px ; margin-left: 4px&quot;&gt;+ askACat(): String&lt;br&gt;&lt;/p&gt;&lt;p style=&quot;margin: 0px ; margin-left: 4px&quot;&gt;+ petSounds(): String&lt;br&gt;&lt;/p&gt;" style="verticalAlign=top;align=left;overflow=fill;fontSize=12;fontFamily=Helvetica;html=1;" parent="Kvf_sfXKE-Xyv2ca15X2-1" vertex="1">
                    <mxGeometry x="400" y="280" width="230" height="120" as="geometry"/>
                </mxCell>
                <mxCell id="9MxlSi04yY22-8tWE9m4-2" style="edgeStyle=none;html=1;exitX=0.5;exitY=1;exitDx=0;exitDy=0;" parent="Kvf_sfXKE-Xyv2ca15X2-1" source="Kvf_sfXKE-Xyv2ca15X2-3" edge="1">
                    <mxGeometry relative="1" as="geometry">
                        <mxPoint x="355" y="720" as="targetPoint"/>
                    </mxGeometry>
                </mxCell>
                <mxCell id="Kvf_sfXKE-Xyv2ca15X2-3" value="&lt;p style=&quot;margin: 0px ; margin-top: 4px ; text-align: center&quot;&gt;&lt;b&gt;Controller&lt;/b&gt;&lt;br&gt;&lt;/p&gt;&lt;hr size=&quot;1&quot;&gt;&lt;p style=&quot;margin: 0px ; margin-left: 4px&quot;&gt;- instance: Controller&lt;/p&gt;&lt;p style=&quot;margin: 0px ; margin-left: 4px&quot;&gt;&lt;u&gt;&lt;br&gt;&lt;/u&gt;&lt;/p&gt;&lt;p style=&quot;margin: 0px ; margin-left: 4px&quot;&gt;- catsList: ArrayList&lt;/p&gt;&amp;nbsp;- dogsList: ArrayList&lt;br&gt;&amp;nbsp;- random: Random&lt;br&gt;&lt;hr size=&quot;1&quot;&gt;&lt;p style=&quot;margin: 0px ; margin-left: 4px&quot;&gt;- Controller()&lt;/p&gt;&lt;p style=&quot;margin: 0px ; margin-left: 4px&quot;&gt;+ getInstance():Controller&lt;/p&gt;&lt;p style=&quot;margin: 0px ; margin-left: 4px&quot;&gt;&lt;br&gt;&lt;/p&gt;&lt;p style=&quot;margin: 0px ; margin-left: 4px&quot;&gt;+ addNewCat(name:String): void&lt;/p&gt;&lt;p style=&quot;margin: 0px ; margin-left: 4px&quot;&gt;+ addNewDog(name:String): void&lt;br&gt;&lt;/p&gt;&lt;p style=&quot;margin: 0px ; margin-left: 4px&quot;&gt;+ getRandomDog(): Dog&lt;br&gt;&lt;/p&gt;&lt;p style=&quot;margin: 0px ; margin-left: 4px&quot;&gt;+ getRandomCat(): Cat&lt;/p&gt;&lt;p style=&quot;margin: 0px ; margin-left: 4px&quot;&gt;&lt;br&gt;&lt;/p&gt;" style="verticalAlign=top;align=left;overflow=fill;fontSize=12;fontFamily=Helvetica;html=1;" parent="Kvf_sfXKE-Xyv2ca15X2-1" vertex="1">
                    <mxGeometry x="260" y="490" width="190" height="240" as="geometry"/>
                </mxCell>
                <mxCell id="Kvf_sfXKE-Xyv2ca15X2-4" value="&lt;p style=&quot;margin: 0px ; margin-top: 4px ; text-align: center&quot;&gt;&lt;b&gt;Dog&lt;/b&gt;&lt;/p&gt;&lt;hr size=&quot;1&quot;&gt;&lt;p style=&quot;margin: 0px ; margin-left: 4px&quot;&gt;- name: String&lt;/p&gt;&lt;p style=&quot;margin: 0px ; margin-left: 4px&quot;&gt;-controller: Controller&lt;/p&gt;&lt;hr size=&quot;1&quot;&gt;&lt;p style=&quot;margin: 0px ; margin-left: 4px&quot;&gt;&lt;span&gt;+ askACat(): String&lt;/span&gt;&lt;br&gt;&lt;/p&gt;&lt;p style=&quot;margin: 0px ; margin-left: 4px&quot;&gt;+ petSounds(): String&lt;/p&gt;" style="verticalAlign=top;align=left;overflow=fill;fontSize=12;fontFamily=Helvetica;html=1;" parent="Kvf_sfXKE-Xyv2ca15X2-1" vertex="1">
                    <mxGeometry x="120" y="280" width="160" height="120" as="geometry"/>
                </mxCell>
                <mxCell id="Kvf_sfXKE-Xyv2ca15X2-5" value="&lt;p style=&quot;margin: 0px ; margin-top: 4px ; text-align: center&quot;&gt;&lt;b&gt;&amp;lt;&amp;lt; abstract &amp;gt;&amp;gt;&lt;/b&gt;&lt;/p&gt;&lt;p style=&quot;margin: 0px ; margin-top: 4px ; text-align: center&quot;&gt;&lt;b&gt;Pet&lt;/b&gt;&lt;/p&gt;&lt;hr size=&quot;1&quot;&gt;&lt;p style=&quot;margin: 0px ; margin-left: 4px&quot;&gt;&lt;span&gt;+ petSounds(): String&lt;/span&gt;&lt;br&gt;&lt;/p&gt;" style="verticalAlign=top;align=left;overflow=fill;fontSize=12;fontFamily=Helvetica;html=1;" parent="Kvf_sfXKE-Xyv2ca15X2-1" vertex="1">
                    <mxGeometry x="280" y="80" width="130" height="70" as="geometry"/>
                </mxCell>
                <mxCell id="Kvf_sfXKE-Xyv2ca15X2-6" value="Extends" style="endArrow=block;endSize=16;endFill=0;html=1;exitX=0.5;exitY=0;exitDx=0;exitDy=0;" parent="Kvf_sfXKE-Xyv2ca15X2-1" source="Kvf_sfXKE-Xyv2ca15X2-2" target="Kvf_sfXKE-Xyv2ca15X2-5" edge="1">
                    <mxGeometry width="160" relative="1" as="geometry">
                        <mxPoint x="420" y="130" as="sourcePoint"/>
                        <mxPoint x="340" y="150" as="targetPoint"/>
                    </mxGeometry>
                </mxCell>
                <mxCell id="Kvf_sfXKE-Xyv2ca15X2-7" value="Extends" style="endArrow=block;endSize=16;endFill=0;html=1;exitX=0.5;exitY=0;exitDx=0;exitDy=0;" parent="Kvf_sfXKE-Xyv2ca15X2-1" source="Kvf_sfXKE-Xyv2ca15X2-4" target="Kvf_sfXKE-Xyv2ca15X2-5" edge="1">
                    <mxGeometry width="160" relative="1" as="geometry">
                        <mxPoint x="80" y="150" as="sourcePoint"/>
                        <mxPoint x="240" y="150" as="targetPoint"/>
                    </mxGeometry>
                </mxCell>
                <mxCell id="9MxlSi04yY22-8tWE9m4-3" value="" style="endArrow=open;endFill=1;endSize=12;html=1;exitX=1.007;exitY=0.364;exitDx=0;exitDy=0;exitPerimeter=0;entryX=0.895;entryY=0;entryDx=0;entryDy=0;entryPerimeter=0;" parent="Kvf_sfXKE-Xyv2ca15X2-1" source="Kvf_sfXKE-Xyv2ca15X2-3" target="Kvf_sfXKE-Xyv2ca15X2-3" edge="1">
                    <mxGeometry width="160" relative="1" as="geometry">
                        <mxPoint x="250" y="480" as="sourcePoint"/>
                        <mxPoint x="370" y="440" as="targetPoint"/>
                        <Array as="points">
                            <mxPoint x="480" y="577"/>
                            <mxPoint x="480" y="440"/>
                            <mxPoint x="430" y="440"/>
                        </Array>
                    </mxGeometry>
                </mxCell>
                <mxCell id="0" value="" style="endArrow=block;startArrow=block;endFill=1;startFill=1;html=1;entryX=0.5;entryY=1;entryDx=0;entryDy=0;exitX=-0.001;exitY=0.446;exitDx=0;exitDy=0;exitPerimeter=0;" parent="Kvf_sfXKE-Xyv2ca15X2-1" source="Kvf_sfXKE-Xyv2ca15X2-3" target="Kvf_sfXKE-Xyv2ca15X2-4" edge="1">
                    <mxGeometry width="160" relative="1" as="geometry">
                        <mxPoint x="200" y="630" as="sourcePoint"/>
                        <mxPoint x="240" y="430" as="targetPoint"/>
                        <Array as="points">
                            <mxPoint x="200" y="597"/>
                        </Array>
                    </mxGeometry>
                </mxCell>
                <mxCell id="1" value="" style="endArrow=block;startArrow=block;endFill=1;startFill=1;html=1;entryX=0.701;entryY=0.997;entryDx=0;entryDy=0;entryPerimeter=0;" parent="Kvf_sfXKE-Xyv2ca15X2-1" target="Kvf_sfXKE-Xyv2ca15X2-2" edge="1">
                    <mxGeometry width="160" relative="1" as="geometry">
                        <mxPoint x="450" y="600" as="sourcePoint"/>
                        <mxPoint x="210" y="410" as="targetPoint"/>
                        <Array as="points">
                            <mxPoint x="561" y="600"/>
                        </Array>
                    </mxGeometry>
                </mxCell>
            </root>
        </mxGraphModel>
    </diagram>
</mxfile>